<svg width="503" height="393" viewBox="0 0 503 393" fill="none" xmlns="http://www.w3.org/2000/svg">
<path d="M423.023 253.167L215.812 377.463C210.888 380.405 205.305 381.954 199.622 381.954C193.939 381.954 188.355 380.405 183.432 377.463L68.232 308.921C66.2664 307.75 64.6319 306.066 63.492 304.035C62.352 302.004 61.7466 299.698 61.7365 297.349C61.7263 294.999 62.3116 292.688 63.4339 290.647C64.5562 288.605 66.1761 286.905 68.1314 285.717L284.107 154.577C286.083 153.385 288.328 152.757 290.615 152.757C292.901 152.757 295.146 153.385 297.122 154.577L423.01 229.976C424.969 231.155 426.594 232.846 427.724 234.88C428.854 236.914 429.45 239.22 429.451 241.567C429.452 243.915 428.859 246.221 427.731 248.257C426.603 250.292 424.98 251.985 423.023 253.167Z" fill="white"/>
<path opacity="0.32" d="M206.23 284.857C212.518 286.851 211.914 293.577 218.377 294.92C222.339 295.741 223.407 305.245 227.457 305.557L255.273 327.575L338.054 274.128L260.491 227.916L193.655 272.394C204.092 280.294 194.032 280.998 206.23 284.857Z" fill="url(#paint0_linear_1_3)"/>
<path opacity="0.32" d="M145.38 336.869C151.667 338.864 157.955 340.78 164.456 342.188C168.406 342.915 172.396 343.39 176.402 343.609L183.117 338.89L227.419 305.57L188.16 284.009L109.981 321.2C120.368 329.1 133.207 333.011 145.38 336.869Z" fill="url(#paint1_linear_1_3)"/>
<path d="M190.096 265.016C185.418 261.627 179.91 259.802 173.962 261.105C167.675 262.552 162.142 266.685 155.678 267.688C154.66 267.845 150.586 267.571 149.957 268.184C131.987 285.808 182.224 283.931 182.224 283.931C187.103 279.799 191.693 275.718 196.535 271.534C195.063 268.197 192.599 266.828 190.096 265.016Z" fill="#F8997C"/>
<path d="M166.455 290.566L164.67 343.804C164.607 345.825 167.625 345.825 167.688 343.804L169.473 290.618C169.549 288.546 166.518 288.546 166.455 290.566Z" fill="#6C1313"/>
<path d="M204.117 319.036C194.971 309.755 186.232 300.069 177.899 289.98C176.641 288.441 174.503 290.671 175.761 292.196C184.085 302.277 192.825 311.962 201.98 321.252C203.375 322.647 205.513 320.444 204.117 319.036Z" fill="#6C1313"/>
<path d="M155.93 285.639C148.829 299.544 142.123 313.653 135.81 327.966C135.005 329.791 137.621 331.381 138.426 329.543C144.696 315.221 151.403 301.112 158.546 287.216C159.489 285.443 156.873 283.84 155.93 285.639Z" fill="#6C1313"/>
<path d="M195.692 269.983C192.664 274.279 188.404 277.473 183.52 279.108C176.654 281.246 166.669 280.229 163.06 272.903C156.496 259.567 162.658 242.92 155.729 229.885C154.921 228.238 153.789 226.785 152.404 225.622C151.02 224.459 149.415 223.61 147.693 223.132C143.204 222.128 140.148 225.583 138.488 229.65C135.558 236.911 135.659 246.036 135.81 253.727C135.817 259.992 136.263 266.248 137.143 272.446C137.143 272.446 141.343 298.44 174.088 291.466C179.749 290.416 185.191 288.356 190.172 285.378C192.715 283.88 194.947 281.872 196.736 279.473C198.685 276.514 197.427 272.981 195.692 269.983Z" fill="#B43434"/>
<path d="M218.352 294.933C218.352 294.933 218.088 299.678 219.497 301.008C220.905 302.338 228.551 298.648 230.588 299.952C232.625 301.256 222.917 310.772 219.497 311.293C216.076 311.815 212.907 306.77 212.907 306.77V313.926L209.034 316.208L206.23 314.461L207.073 294.907L218.352 294.933Z" fill="#E1C08F"/>
<path d="M205.262 298.427C209.336 302.064 213.712 301.946 218.767 299.73C222.401 293.108 226.677 252.802 217.598 246.284C207.84 239.362 192.586 240.6 190.033 241.356L152.66 247.705C149.793 252.762 157.389 279.251 174.038 279.994C190.687 280.737 201.225 274.258 201.225 274.258L205.262 298.427Z" fill="#090909"/>
<path d="M190.738 187.727C188.969 188.524 187.498 189.897 186.55 191.638V191.768C183.922 193.997 183.507 198.064 180.715 200.072C180.715 200.15 178.087 202.066 178.062 202.145C178.037 202.223 178.313 198.416 178.301 198.442C177.395 201.05 176.503 203.657 175.786 206.264C175.911 206.344 176.047 206.405 176.188 206.446L175.899 206.59L175.648 206.746C175.614 206.878 175.551 206.999 175.463 207.101C175.376 207.203 175.267 207.282 175.145 207.333C175.038 207.716 175.04 208.123 175.152 208.504C175.263 208.886 175.479 209.225 175.774 209.482C176.068 209.739 176.427 209.901 176.809 209.95C177.191 209.999 177.578 209.932 177.924 209.757L186.374 205.482C187.499 205.231 188.604 204.896 189.681 204.478C189.681 203.565 189.82 202.653 189.908 201.74C190.575 200.673 190.975 199.451 191.074 198.184C191.173 196.917 190.966 195.644 190.473 194.479C190.517 194.421 190.568 194.368 190.624 194.323V194.232C191.323 193.724 191.917 193.078 192.372 192.331C192.828 191.583 193.136 190.75 193.278 189.878C193.29 188.679 192.083 187.075 190.738 187.727Z" fill="#E7D0B7"/>
<path d="M179.986 196.005C179.986 196.005 189.618 202.21 190.624 207.372C190.624 207.372 183.859 222.611 184.337 223.21C191.983 233.548 169.058 216.692 169.058 216.692C169.058 216.692 173.673 202.197 179.986 196.005Z" fill="#B43434"/>
<path d="M201.917 199.785C202.709 206.681 194.221 216.288 190.599 218.139C185.695 220.681 183.784 199.537 162.23 199.629C160.834 199.629 153.843 196.539 150.171 206.068C146.499 215.597 150.171 242.907 152.623 247.665C154.786 251.863 169.159 262.005 189.694 251.159L189.996 241.317C189.996 241.317 202.105 241.043 208.531 231.814C214.517 223.197 218.063 210.266 217.497 203.917C212.681 201.714 206.683 198.169 201.917 199.785Z" fill="#B43434"/>
<path d="M179.986 196.005C179.986 196.005 189.618 202.21 190.624 207.372C190.624 207.372 183.859 222.611 184.337 223.21C191.983 233.548 169.058 216.692 169.058 216.692C169.058 216.692 173.673 202.197 179.986 196.005Z" fill="#E1C08F"/>
<path d="M219.358 191.377C219.293 191.081 219.168 190.802 218.989 190.561C218.811 190.319 218.585 190.121 218.326 189.979C218.067 189.836 217.781 189.754 217.488 189.736C217.195 189.719 216.903 189.767 216.63 189.878C216.502 189.359 216.209 188.9 215.8 188.574C215.467 188.316 215.067 188.168 214.652 188.149C214.237 188.131 213.826 188.242 213.473 188.47C213.252 188.601 213.052 188.768 212.882 188.965L212.756 188.822C212.476 188.48 212.103 188.234 211.686 188.115C211.269 187.996 210.827 188.011 210.417 188.157C210.175 188.272 209.957 188.436 209.776 188.639C209.539 187.424 209.236 186.223 208.871 185.042C208.531 183.855 207.965 181.678 206.557 181.418C205.639 181.248 205.211 181.939 205.023 182.721C204.79 183.282 204.755 183.909 204.922 184.494C204.987 185.296 205.1 186.093 205.262 186.88C205.387 188.001 205.501 189.122 205.601 190.243C205.414 190.241 205.233 190.316 205.098 190.451C204.427 190.965 203.931 191.686 203.683 192.511C203.434 193.336 203.445 194.222 203.715 195.04C204.324 197.388 205.167 199.664 206.23 201.832C206.273 201.928 206.334 202.013 206.41 202.084C206.486 202.154 206.575 202.207 206.672 202.24C206.768 202.273 206.871 202.285 206.972 202.275C207.074 202.266 207.172 202.234 207.261 202.184L207.374 202.601C207.416 202.79 207.521 202.957 207.671 203.074C207.82 203.19 208.004 203.248 208.191 203.237C208.378 203.226 208.555 203.147 208.691 203.014C208.826 202.881 208.913 202.702 208.934 202.51V202.353C209.012 202.419 209.101 202.467 209.198 202.496L209.261 203.409C209.261 204.243 210.518 204.243 210.782 203.552L210.858 204.217C210.958 205.143 212.367 205.038 212.417 204.126V203.383C212.549 203.377 212.678 203.341 212.795 203.278C212.913 203.215 213.015 203.126 213.096 203.018C213.232 203.2 213.43 203.321 213.649 203.357C213.755 203.446 213.883 203.502 214.019 203.521C214.154 203.539 214.292 203.519 214.416 203.461V203.657C214.483 203.877 214.628 204.062 214.822 204.176C215.016 204.289 215.244 204.323 215.46 204.269C215.46 204.361 215.46 204.452 215.46 204.543C215.46 205.586 217.057 205.729 217.032 204.673C217.032 202.579 216.977 200.485 216.868 198.39C216.954 198.345 217.031 198.283 217.095 198.208C218.742 196.5 220.151 193.749 219.358 191.377ZM210.908 189.8C210.972 189.755 211.045 189.727 211.121 189.715C211.197 189.704 211.275 189.711 211.348 189.734C211.307 189.795 211.273 189.861 211.247 189.93H210.77C210.806 189.881 210.848 189.837 210.895 189.8H210.908Z" fill="#E7D0B7"/>
<path d="M173.686 174.47C173.686 174.704 175.019 188.666 172.001 191.742C168.983 194.818 160.973 193.554 158.986 190.191C156.999 186.827 154.559 182.369 156.685 177.155C158.81 171.941 173.321 171.041 173.686 174.47Z" fill="#E7D0B7"/>
<path d="M169.373 183.568C169.476 183.324 169.509 183.054 169.469 182.791C169.429 182.528 169.317 182.282 169.146 182.082C168.221 180.896 166.936 180.069 165.5 179.736C164.849 179.576 164.163 179.669 163.575 179.999C162.986 180.328 162.534 180.87 162.305 181.522C161.388 184.69 166.342 185.628 168.367 185.889C168.722 185.885 169.063 185.737 169.314 185.477C169.566 185.216 169.709 184.863 169.712 184.494C169.721 184.151 169.599 183.819 169.373 183.568Z" fill="#FFE8E6"/>
<path d="M201.917 199.785C202.709 206.681 194.221 216.288 190.599 218.139C185.695 220.681 183.784 199.537 162.23 199.629C160.834 199.629 153.843 196.539 150.171 206.068C146.499 215.597 150.171 242.907 152.623 247.665C154.786 251.863 169.159 262.005 189.694 251.159L189.996 241.317C189.996 241.317 202.105 241.043 208.531 231.814C214.517 223.197 218.063 210.266 217.497 203.917C212.681 201.714 206.683 198.169 201.917 199.785Z" fill="#E1C08F"/>
<path d="M200.232 238.918C194.639 241 188.534 241.076 182.894 239.136C177.254 237.196 172.404 233.351 169.121 228.216C168.694 227.538 167.625 228.216 168.065 228.855C171.483 234.232 176.542 238.266 182.432 240.313C188.323 242.359 194.705 242.3 200.559 240.144C201.288 239.87 200.974 238.632 200.232 238.918Z" fill="white"/>
<path d="M188.109 215.793C187.01 213.141 185.381 210.759 183.331 208.806C180.979 206.59 178.075 205.169 175.622 203.096C175.132 202.679 174.365 203.409 174.918 203.826C177.232 205.781 179.948 207.15 182.224 209.171C184.401 211.126 186.121 213.569 187.254 216.314C187.506 216.914 188.373 216.393 188.109 215.793Z" fill="white"/>
<path d="M173.988 176.438L169.7 178.771C169.7 178.771 173.019 191.807 174.013 195.301C175.006 198.794 171.02 203.565 158.068 203.917C145.115 204.269 145.769 183.947 148.762 176.36C151.755 168.773 160.721 165.331 168.027 167.404C169.963 167.803 171.671 168.971 172.786 170.66C173.9 172.349 174.331 174.423 173.988 176.438Z" fill="#56280E"/>
<path d="M197.138 273.033C197.007 272.697 196.795 272.401 196.523 272.173C196.251 271.945 195.927 271.793 195.583 271.73C195.238 271.668 194.884 271.697 194.553 271.815C194.223 271.934 193.926 272.138 193.693 272.407C190.933 275.537 187.423 277.853 183.52 279.121C176.654 281.259 166.669 280.242 163.06 272.916C156.521 259.632 162.62 243.012 155.804 230.054C154.63 227.721 152.859 225.769 150.686 224.41C144.537 220.734 140.438 224.762 138.476 229.624C135.558 236.911 135.659 246.036 135.81 253.727C135.817 259.992 136.263 266.248 137.143 272.446C137.143 272.446 141.343 298.44 174.088 291.466C179.749 290.416 185.191 288.356 190.172 285.378C192.715 283.88 194.947 281.873 196.736 279.473C197.323 278.522 197.667 277.433 197.738 276.307C197.808 275.18 197.602 274.054 197.138 273.033Z" fill="#B43434"/>
<path d="M265.219 13.6601L256.832 17.5057L264.892 21.1817L266.829 16.8669" fill="#C7C2C2"/>
<path d="M341.638 269.096L271.96 227.004C269.152 225.31 266.823 222.883 265.203 219.964C263.583 217.045 262.731 213.737 262.729 210.37L260.491 19.2133C260.491 14.1946 268.036 11.6395 272.173 14.1946L344.253 58.3207C346.042 59.4155 347.524 60.9748 348.554 62.8447C349.584 64.7147 350.126 66.8307 350.126 68.984V264.038C350.126 265.068 349.864 266.079 349.367 266.97C348.869 267.861 348.154 268.6 347.293 269.113C346.432 269.626 345.456 269.895 344.463 269.892C343.47 269.889 342.496 269.614 341.638 269.096Z" fill="#C7C2C2"/>
<path d="M347.221 269.148L338.104 274.141L339.16 267.558L345.486 266.372" fill="#C7C2C2"/>
<path d="M332.898 273.893L263.22 231.801C260.416 230.103 258.09 227.672 256.475 224.751C254.859 221.83 254.011 218.521 254.015 215.154V22.1333C254.013 21.2303 254.242 20.3428 254.679 19.5613C255.115 18.7798 255.744 18.1322 256.5 17.6845C257.257 17.2367 258.114 17.0048 258.985 17.0123C259.857 17.0198 260.71 17.2665 261.459 17.7273L335.539 63.0787C337.327 64.1735 338.81 65.7328 339.84 67.6028C340.869 69.4728 341.411 71.5888 341.411 73.742V268.836C341.414 269.869 341.153 270.884 340.654 271.779C340.156 272.674 339.437 273.416 338.573 273.929C337.708 274.443 336.727 274.71 335.731 274.704C334.734 274.698 333.757 274.418 332.898 273.893Z" fill="#F4F4F4"/>
<path d="M336.96 85.5264L257.586 38.3368V207.202L336.96 254.77V85.5264Z" fill="white"/>
<path d="M291.039 242.973C293.005 242.486 294.085 239.861 293.451 237.109C292.817 234.357 290.709 232.52 288.744 233.007C286.778 233.493 285.698 236.119 286.332 238.871C286.966 241.623 289.073 243.459 291.039 242.973Z" fill="#BABABC"/>
<path d="M286.911 46.4581C286.912 46.7812 286.995 47.0983 287.152 47.3775C287.309 47.6567 287.533 47.8881 287.804 48.0485L303.145 57.1735C303.415 57.3332 303.72 57.4168 304.03 57.416C304.34 57.4153 304.645 57.3302 304.913 57.1692C305.182 57.0082 305.405 56.7771 305.56 56.4988C305.716 56.2204 305.798 55.9047 305.799 55.5832V55.1921C305.798 54.8643 305.712 54.5427 305.55 54.2608C305.389 53.9788 305.158 53.7468 304.881 53.5887L289.539 44.8417C289.269 44.6874 288.964 44.6089 288.656 44.614C288.347 44.6192 288.045 44.7078 287.779 44.8711C287.514 45.0344 287.294 45.2667 287.142 45.545C286.99 45.8234 286.91 46.1381 286.911 46.4581Z" fill="#CCCCCC"/>
<path d="M280.68 43.8703C281.579 43.5254 281.94 42.2168 281.487 40.9475C281.034 39.6781 279.938 38.9287 279.039 39.2735C278.14 39.6184 277.779 40.927 278.232 42.1963C278.685 43.4657 279.781 44.2151 280.68 43.8703Z" fill="#CCCCCC"/>
<path d="M320.558 228.976C324.595 227.646 326.47 222.007 324.745 216.381C323.021 210.755 318.349 207.272 314.312 208.602C310.274 209.932 308.4 215.571 310.124 221.198C311.849 226.824 316.52 230.307 320.558 228.976Z" fill="#F2F2F2"/>
<path d="M317.851 220.231C319.344 219.894 320.172 217.796 319.699 215.545C319.227 213.294 317.634 211.742 316.141 212.078C314.648 212.415 313.82 214.513 314.293 216.764C314.765 219.015 316.358 220.567 317.851 220.231Z" fill="#C4B7B3"/>
<path d="M322.423 227.942C322.423 227.942 320.763 220.408 316.576 219.495C312.388 218.583 311.357 224.084 311.357 224.084C311.914 225.241 312.691 226.27 313.642 227.108C314.593 227.946 315.698 228.576 316.89 228.959C321.077 230.393 322.423 227.942 322.423 227.942Z" fill="#C4B7B3"/>
<path d="M296.266 215.007C300.641 213.566 302.673 207.458 300.805 201.365C298.938 195.272 293.877 191.501 289.502 192.943C285.127 194.384 283.094 200.492 284.962 206.584C286.83 212.677 291.891 216.448 296.266 215.007Z" fill="#EA7554"/>
<path d="M296.342 198.677C296.078 198.599 293.739 200.124 293.827 200.632C293.915 201.141 295.085 202.861 294.909 203.174C294.733 203.487 292.394 206.564 291.061 206.759C290.166 206.18 289.324 205.517 288.546 204.778C288.114 204.949 287.731 205.231 287.434 205.599C287.137 205.966 286.936 206.406 286.848 206.876C286.848 207.437 289.024 209.327 290.369 209.81C292.117 210.435 297.499 204.243 298.141 202.627C298.782 201.01 296.342 198.677 296.342 198.677Z" fill="white"/>
<path d="M276.487 188.926V199.603C276.486 199.986 276.389 200.363 276.205 200.695C276.022 201.028 275.758 201.306 275.44 201.502C275.122 201.698 274.76 201.805 274.391 201.812C274.021 201.82 273.655 201.728 273.33 201.545L263.811 196.122C263.476 195.931 263.196 195.649 263.001 195.308C262.807 194.966 262.704 194.576 262.704 194.18V183.256C262.706 182.869 262.805 182.489 262.993 182.154C263.18 181.82 263.448 181.542 263.771 181.348C264.094 181.154 264.461 181.051 264.834 181.05C265.207 181.048 265.574 181.148 265.898 181.339L275.418 187.01C275.742 187.204 276.012 187.483 276.199 187.82C276.387 188.156 276.486 188.538 276.487 188.926Z" fill="#FFAC99"/>
<path d="M270.543 195.942C272.049 195.27 272.547 192.984 271.655 190.834C270.763 188.685 268.82 187.486 267.314 188.158C265.808 188.829 265.311 191.116 266.202 193.265C267.094 195.415 269.037 196.613 270.543 195.942Z" fill="white"/>
<path d="M256.656 180.505C256.656 180.505 260.303 163.741 267.973 162.816C275.644 161.89 319.216 183.894 329.012 196.643C335.174 204.66 336.017 212.286 335.677 216.523C335.539 218.244 336.017 252.749 336.017 252.749L256.656 205.169V180.505Z" fill="#B43434"/>
<path d="M320.663 149.715C319.807 138.686 318.726 126.354 312.438 118.064C303.988 106.931 286.974 103.307 275.631 113.345C273.23 115.47 272.11 118.898 271.419 122.405C270.674 126.436 270.408 130.547 270.627 134.645C271.058 142.701 272.504 150.664 274.927 158.331C277.291 166.153 311.156 185.354 317.883 177.337C322.737 171.523 321.216 157.132 320.663 149.715Z" fill="#41300D"/>
<path d="M305.749 154.108V178.876C305.749 178.876 294.859 182.904 286.886 178.876V154.108" fill="#FFD3C0"/>
<path d="M286.886 168.264V173.622C294.054 172.853 300.731 169.493 305.749 164.132V154.095L286.886 168.264Z" fill="#F7B29A"/>
<path d="M304.717 141.528C304.717 141.528 307.66 127.189 300.945 124.177C294.783 121.492 290.52 130.422 287.112 130.695C285.889 131.673 284.457 132.335 282.938 132.625C281.836 132.833 280.705 132.793 279.62 132.507C278.535 132.221 277.522 131.697 276.65 130.969C277.304 131.478 276.763 138.321 276.814 139.547C276.927 142.789 277.212 146.022 277.669 149.232C278.499 154.759 279.769 161.342 283.541 165.605C290.156 173.062 299.889 168.76 303.259 160.326C303.737 159.1 304.101 157.836 304.629 156.624L306.541 152.23C306.541 152.23 311.885 149.623 311.885 145.217C311.885 140.811 308.905 140.446 304.717 141.528Z" fill="#FFD3C0"/>
<path d="M307.031 140.446L300.643 142.91C300.363 141.358 299.593 139.946 298.455 138.896C297.317 137.846 295.875 137.218 294.356 137.109C291.136 137.109 288.445 139.925 287.854 143.627C287.062 143.536 286.27 143.418 285.49 143.275C285.49 143.184 285.49 143.092 285.49 142.988C285.49 139.077 282.849 135.844 279.593 135.844C276.336 135.844 273.695 139.038 273.695 142.988C273.695 146.938 276.336 150.132 279.593 150.132C281.021 150.04 282.374 149.437 283.422 148.427C284.47 147.417 285.147 146.061 285.339 144.591C286.132 144.735 286.936 144.852 287.741 144.93C287.741 145.009 287.741 145.1 287.741 145.178C287.741 149.662 290.709 153.299 294.368 153.299C298.027 153.299 300.995 149.662 300.995 145.178C301.012 144.839 301.012 144.5 300.995 144.161L307.496 141.658C308.087 141.398 307.786 140.133 307.031 140.446Z" stroke="black" stroke-width="1.015" stroke-miterlimit="10"/>
<path d="M285.566 155.502C285.377 155.579 285.177 155.618 284.975 155.62C284.671 155.611 284.375 155.515 284.121 155.343C283.866 155.171 283.663 154.929 283.533 154.644C283.402 154.359 283.351 154.043 283.383 153.73C283.416 153.416 283.531 153.119 283.717 152.869C283.855 152.556 284.019 152.257 284.094 152.061L285.478 148.359C285.767 147.577 284.56 147.238 284.22 148.007L282.724 151.996C282.296 152.795 282.058 153.689 282.032 154.603C282.246 156.376 284.107 156.728 285.503 156.793C286.37 156.845 286.37 155.542 285.566 155.502Z" fill="#F4AB97"/>
<path d="M286.961 157.979L294.293 155.242C294.293 155.242 296.43 161.681 293.5 162.789C290.57 163.898 286.961 157.979 286.961 157.979Z" fill="white"/>
<defs>
<linearGradient id="paint0_linear_1_3" x1="243.112" y1="306.209" x2="276.68" y2="261.064" gradientUnits="userSpaceOnUse">
<stop stop-color="#FFAD0D" stop-opacity="0"/>
<stop offset="1" stop-color="#C1272D"/>
</linearGradient>
<linearGradient id="paint1_linear_1_3" x1="149.089" y1="330.625" x2="192.009" y2="295.519" gradientUnits="userSpaceOnUse">
<stop offset="0.0520833" stop-color="#DFA7A9" stop-opacity="0"/>
<stop offset="0.96875" stop-color="#ED1C24"/>
</linearGradient>
</defs>
</svg>
