<svg width="683" height="600" viewBox="0 0 683 600" fill="none" xmlns="http://www.w3.org/2000/svg">
<path d="M116.299 275.832C-53.0075 255.105 -5.07331 82.9044 58.2739 -28.5826C178.982 -241.022 897 -28.5826 897 -28.5826V780.035C897 780.035 284.45 974.88 324.285 820.519C355.336 700.194 843.145 735.76 707.853 658.059C627.093 611.677 523.695 686.007 441.089 641.235C291.314 560.058 837.842 370.285 654.35 336.82C549.623 317.72 488.259 436.649 392.86 400.963C284.11 360.282 480.542 216.488 367.992 181.195C266.148 149.26 226.276 289.296 116.299 275.832Z" fill="url(#paint0_linear_1_56)"/>
<defs>
<linearGradient id="paint0_linear_1_56" x1="0" y1="378.5" x2="897" y2="378.5" gradientUnits="userSpaceOnUse">
<stop stop-color="#E0A872"/>
<stop offset="0.5" stop-color="#EBBCF0"/>
<stop offset="1" stop-color="#8EE0E6"/>
</linearGradient>
</defs>
</svg>
